<?xml version="1.0" encoding="UTF-8" standalone="no"?>
<svg
   width="120.32945"
   height="54.597782"
   viewBox="0 0 120.32945 54.597783"
   version="1.1"
   id="svg161"
   sodipodi:docname="amp.svg"
   inkscape:version="1.2.1 (9c6d41e410, 2022-07-14)"
   xmlns:inkscape="http://www.inkscape.org/namespaces/inkscape"
   xmlns:sodipodi="http://sodipodi.sourceforge.net/DTD/sodipodi-0.dtd"
   xmlns="http://www.w3.org/2000/svg"
   xmlns:svg="http://www.w3.org/2000/svg">
  <sodipodi:namedview
     id="namedview163"
     pagecolor="#ffffff"
     bordercolor="#000000"
     borderopacity="0.25"
     inkscape:showpageshadow="2"
     inkscape:pageopacity="0.0"
     inkscape:pagecheckerboard="0"
     inkscape:deskcolor="#d1d1d1"
     showgrid="false"
     inkscape:zoom="9.666158"
     inkscape:cx="75.883303"
     inkscape:cy="45.726544"
     inkscape:window-width="1920"
     inkscape:window-height="1057"
     inkscape:window-x="1912"
     inkscape:window-y="-8"
     inkscape:window-maximized="1"
     inkscape:current-layer="Logo" />
  <defs
     id="defs147">
    <style
       id="style145">
      .cls-1 {
        fill: #65b533;
      }

      .cls-2 {
        fill: #fff;
      }
    </style>
  </defs>
  <g
     id="Logo"
     transform="matrix(1,0,0,0.91978934,-804.53977,-15.384395)">
    <path
       id="Path_1"
       data-name="Path 1"
       class="cls-1"
       d="m 879.96352,26.236284 a 12.36,12.36 0 0 0 -24.054,0 12.36,12.36 0 0 0 0,24.053 12.36,12.36 0 0 0 24.054,0 12.36,12.36 0 0 0 0,-24.053 z m -12.027,-7.87 a 10.713,10.713 0 0 1 6.964,18.861 12.3,12.3 0 0 0 -4.114,-1.815 12.362,12.362 0 0 0 -12.027,-9.51 c -0.362,0 -0.721,0.019 -1.075,0.05 a 10.739,10.739 0 0 1 10.252,-7.586 z m 1.352,21.908 a 10.235,10.235 0 0 1 -0.277,1.128 10.668,10.668 0 0 1 -1.075,2.4 10.666,10.666 0 0 1 -1.075,-2.4 10.228,10.228 0 0 1 -0.277,-1.124 0.829,0.829 0 0 0 -0.659,-0.659 10.236,10.236 0 0 1 -1.124,-0.277 10.667,10.667 0 0 1 -2.4,-1.075 10.668,10.668 0 0 1 2.4,-1.075 10.237,10.237 0 0 1 1.124,-0.277 0.829,0.829 0 0 0 0.659,-0.659 10.229,10.229 0 0 1 0.277,-1.124 10.666,10.666 0 0 1 1.075,-2.4 10.668,10.668 0 0 1 1.075,2.4 10.236,10.236 0 0 1 0.277,1.124 0.829,0.829 0 0 0 0.659,0.659 10.238,10.238 0 0 1 1.124,0.277 10.667,10.667 0 0 1 2.4,1.075 10.667,10.667 0 0 1 -2.4,1.075 10.236,10.236 0 0 1 -1.124,0.277 0.829,0.829 0 0 0 -0.659,0.655 z m -21.249,-2.011 a 10.714,10.714 0 0 1 18.861,-6.961 12.294,12.294 0 0 0 -1.815,4.114 12.362,12.362 0 0 0 -9.51,12.023 c 0,0.362 0.019,0.721 0.05,1.075 a 10.739,10.739 0 0 1 -7.586,-10.251 z m 19.9,19.9 a 10.713,10.713 0 0 1 -6.964,-18.861 12.3,12.3 0 0 0 4.114,1.815 12.362,12.362 0 0 0 12.027,9.51 c 0.362,0 0.721,-0.019 1.075,-0.05 a 10.739,10.739 0 0 1 -10.255,7.582 z m 12.311,-9.645 a 10.66,10.66 0 0 1 -1.69,0.369 10.674,10.674 0 0 1 -9.585,-3.657 12.294,12.294 0 0 0 1.815,-4.114 12.3,12.3 0 0 0 4.114,-1.815 12.373,12.373 0 0 0 5.4,-10.212 c 0,-0.362 -0.019,-0.721 -0.05,-1.075 a 10.72,10.72 0 0 1 0,20.5 z" />
    <path
       id="Path_2"
       data-name="Path 2"
       class="cls-1"
       d="m 812.00278,71.446755 v -0.861 a 4.153,4.153 0 0 1 -3.078,1.141 4.74,4.74 0 0 1 -3.156,-1.026 3.588,3.588 0 0 1 -1.223,-2.911 3.389,3.389 0 0 1 1.386,-2.936 5.551,5.551 0 0 1 3.342,-1 6.221,6.221 0 0 1 2.724,0.558 v -0.605 q 0,-1.887 -2.143,-1.887 a 6.363,6.363 0 0 0 -3.681,1.188 l -0.931,-2.446 a 8.492,8.492 0 0 1 4.867,-1.399996 7.766,7.766 0 0 1 1.689,0.163 5.664,5.664 0 0 1 1.527,0.604996 2.906,2.906 0 0 1 1.223,1.41 5.931,5.931 0 0 1 0.43,2.412 v 7.591 z m -2.492,-2.375 a 3.585,3.585 0 0 0 2.492,-0.978 v -1.28 a 5.826,5.826 0 0 0 -2.212,-0.4 3.491,3.491 0 0 0 -1.653,0.336 1.106,1.106 0 0 0 -0.629,1.039 1.071,1.071 0 0 0 0.523,0.931 2.66,2.66 0 0 0 1.478,0.352 z" />
    <path
       id="Path_3"
       data-name="Path 3"
       class="cls-1"
       d="m 830.59269,71.757115 v -6.5 a 3.872,3.872 0 0 0 -0.443,-2.119 1.616,1.616 0 0 0 -1.444,-0.653 1.853,1.853 0 0 0 -1.571,0.653 3.462,3.462 0 0 0 -0.5,2.1 v 6.52 h -3.028 v -6.5 a 3.869,3.869 0 0 0 -0.444,-2.119 1.614,1.614 0 0 0 -1.443,-0.653 1.854,1.854 0 0 0 -1.572,0.653 3.462,3.462 0 0 0 -0.5,2.1 v 6.52 h -3.028 v -11.9 h 3.028 v 1.1 a 3.4,3.4 0 0 1 2.818,-1.372996 3.13,3.13 0 0 1 3.052,1.676996 4.177,4.177 0 0 1 3.657,-1.676996 q 4.448,0 4.45,4.699996 v 7.476 z" />
    <path
       id="Path_4"
       data-name="Path 4"
       class="cls-1"
       d="m 840.00654,71.707005 a 3.063,3.063 0 0 1 -2.54,-1.143 v 4.147 l -3.026,1.374 V 59.524007 h 3.028 v 0.862998 a 3.086,3.086 0 0 1 2.562,-1.140998 4.38,4.38 0 0 1 3.576,1.639998 7.1,7.1 0 0 1 1.338,4.6 6.954,6.954 0 0 1 -1.373,4.542 4.392,4.392 0 0 1 -3.565,1.679 z m -0.466,-2.913 a 2.035,2.035 0 0 0 1.759,-0.861 4.163,4.163 0 0 0 0.616,-2.446 4.225,4.225 0 0 0 -0.616,-2.434 2.01,2.01 0 0 0 -1.759,-0.9 2.442,2.442 0 0 0 -2.073,0.954 v 4.706 a 2.247,2.247 0 0 0 2.073,0.983 z" />
    <path
       id="Path_5"
       data-name="Path 5"
       class="cls-1"
       d="m 851.10399,72.244015 a 5.208,5.208 0 0 1 -4.076,-1.655 7.708,7.708 0 0 1 0.011,-9.131 5.759,5.759 0 0 1 7.862,-0.245 5.585,5.585 0 0 1 1.466,4.182 13.386,13.386 0 0 1 -0.093,1.794 h -7.756 a 2.514,2.514 0 0 0 0.826,1.759 2.581,2.581 0 0 0 1.759,0.64 3.11,3.11 0 0 0 2.562,-1.234 l 1.865,1.887 a 5.449,5.449 0 0 1 -4.426,2.003 z m -2.562,-7.617 h 4.867 a 2.621,2.621 0 0 0 -0.757,-1.609 2.169,2.169 0 0 0 -1.549,-0.581 2.285,2.285 0 0 0 -2.557,2.191 z" />
    <path
       id="Path_6"
       data-name="Path 6"
       class="cls-1"
       d="m 858.15664,71.860565 v -11.9 h 3.028 v 1.049 a 2.241,2.241 0 0 1 2.212,-1.327 3.694,3.694 0 0 1 2.423,0.909 l -0.419,2.772 a 3.645,3.645 0 0 0 -2.167,-0.7 q -2.052,0 -2.05,2.562 v 6.639 z" />
    <path
       id="Path_7"
       data-name="Path 7"
       class="cls-1"
       d="m 872.47535,72.037115 a 5.212,5.212 0 0 1 -4.077,-1.655 7.716,7.716 0 0 1 0.011,-9.131 5.759,5.759 0 0 1 7.862,-0.245 5.586,5.586 0 0 1 1.468,4.182 13.7,13.7 0 0 1 -0.093,1.794 h -7.758 a 2.509,2.509 0 0 0 0.828,1.759 2.578,2.578 0 0 0 1.759,0.64 3.114,3.114 0 0 0 2.562,-1.234 l 1.863,1.887 a 5.448,5.448 0 0 1 -4.425,2.003 z m -2.563,-7.617 h 4.869 a 2.631,2.631 0 0 0 -0.757,-1.609 2.172,2.172 0 0 0 -1.549,-0.581 2.286,2.286 0 0 0 -2.564,2.191 z" />
    <path
       id="Path_8"
       data-name="Path 8"
       class="cls-2"
       d="M 879.10918,72.350025 V 56.930029 l 3.03,-1.4 v 6.033996 a 3.887,3.887 0 0 1 3.191,-1.4 4.209,4.209 0 0 1 2.969,1.106 4.656,4.656 0 0 1 1.2,3.574 v 7.5 h -3.028 v -6.639 q 0,-2.63 -2.073,-2.631 -2.26,0 -2.258,2.585 v 6.685 z" />
    <path
       id="Path_9"
       data-name="Path 9"
       class="cls-2"
       d="m 900.4554,70.502515 a 5.6789619,5.679 0 0 1 -8.01395,0 7.8129476,7.813 0 0 1 0.013,-9.131 5.5999624,5.6 0 0 1 7.98795,0 7.8129476,7.813 0 0 1 0.013,9.131 z m -4.00598,-1.258 a 2.1139858,2.114 0 0 0 1.79399,-0.874 3.9999731,4 0 0 0 0.651,-2.434 4.0619727,4.062 0 0 0 -0.651,-2.446 2.238985,2.239 0 0 0 -3.57597,0.013 3.9999731,4 0 0 0 -0.664,2.434 3.9569734,3.957 0 0 0 0.664,2.423 2.1179858,2.118 0 0 0 1.78198,0.884 z"
       style="stroke-width:0.999997" />
    <path
       id="Path_10"
       data-name="Path 10"
       class="cls-2"
       d="m 911.37932,71.874515 v -1.117 a 3.8479742,3.848 0 0 1 -3.19098,1.4 4.2059718,4.206 0 0 1 -2.95798,-1.119 4.6429688,4.643 0 0 1 -1.21199,-3.564 v -7.5 h 3.02798 v 6.524 a 3.4829766,3.483 0 0 0 0.5,2.084 1.8449876,1.845 0 0 0 1.57199,0.664 q 2.25998,0 2.25998,-2.7 v -6.569 h 3.02798 v 11.9 z"
       style="stroke-width:0.999997" />
    <path
       id="Path_11"
       data-name="Path 11"
       class="cls-2"
       d="m 917.20628,71.875515 v -11.9 h 3.02798 v 1.049 a 2.2449849,2.245 0 0 1 2.21399,-1.327 3.6929752,3.693 0 0 1 2.42098,0.909 l -0.41899,2.772 a 3.6399756,3.64 0 0 0 -2.16699,-0.7 q -2.04899,0 -2.04999,2.562 v 6.639 z"
       style="stroke-width:0.999997" />
  </g>
</svg>
