<svg xmlns="http://www.w3.org/2000/svg" xmlns:xlink="http://www.w3.org/1999/xlink" xml:space="preserve" width="2.35204in" height="0.544898in" style="shape-rendering:geometricPrecision; text-rendering:geometricPrecision; image-rendering:optimizeQuality; fill-rule:evenodd; clip-rule:evenodd" viewBox="0 0 1790.49 414.8"> <defs> <style type="text/css"> <![CDATA[ .fil1 {fill:#A9C545;fill-rule:nonzero} .fil0 {fill:#473E64;fill-rule:nonzero} ]]> </style> </defs> <g id="Layer_x0020_1"> <metadata id="CorelCorpID_0Corel-Layer"></metadata> <path class="fil0" d="M221.76 143.36l-35.67 0 0 88.19c-14.4,2.9 -27.52,4.36 -39.34,4.36 -74.05,0 -111.07,-35.99 -111.07,-107.98 0,-67.15 37.6,-100.72 112.81,-100.72 25.07,0 49.49,4.24 73.28,12.7l0 -29.04c-23.78,-7.26 -49.5,-10.89 -77.14,-10.89 -96.42,0 -144.63,42.65 -144.63,127.94 0,90.13 49.95,135.2 149.83,135.2 25.71,0 49.69,-3.99 71.93,-11.97l0 -107.8zm58.82 -141.55l0 259.51 183.19 0 0 -27.22 -147.52 0 0 -90.74 137.88 0 0 -27.22 -137.88 0 0 -87.1 144.63 0 0 -27.23 -180.3 0zm270.93 259.51l0 -210.87 168.73 210.87 35.67 0 0 -259.51 -33.74 0 0 209.06 -168.73 -209.06 -35.67 0 0 259.51 33.74 0zm269.97 -259.51l0 259.51 183.19 0 0 -27.22 -147.52 0 0 -90.74 137.88 0 0 -27.22 -137.88 0 0 -87.1 144.63 0 0 -27.23 -180.3 0zm272.86 259.51l0 -231.74 78.68 0c29.31,0 43.97,11.98 43.97,35.93 0,30.25 -26.35,49.3 -79.07,57.17l0 21.95 87.74 116.69 47.05 0 -94.68 -122.32c51.29,-16.21 76.94,-41.19 76.94,-74.94 0,-41.49 -26.22,-62.25 -78.68,-62.25l-117.63 0 0 259.51 35.67 0zm424.25 -117.96l-35.68 0 0 88.19c-14.39,2.9 -27.51,4.36 -39.34,4.36 -74.05,0 -111.07,-35.99 -111.07,-107.98 0,-67.15 37.6,-100.72 112.81,-100.72 25.07,0 49.49,4.24 73.28,12.7l0 -29.04c-23.79,-7.26 -49.5,-10.89 -77.14,-10.89 -96.42,0 -144.63,42.65 -144.63,127.94 0,90.13 49.94,135.2 149.83,135.2 25.71,0 49.68,-3.99 71.93,-11.97l0 -107.8zm130.94 27.22l0 90.74 35.67 0 0 -90.74 105.29 -168.77 -41.46 0 -80.6 135.56 -79.45 -135.56 -39.53 0 100.08 168.77z"></path> <path class="fil0" d="M221.42 129.66c0,0 -103.65,22.66 -165.5,-5.89 0,0 48.39,47.95 165.92,37.61l0 -27.23 -0.41 -4.5z"></path> <path class="fil0" d="M1518.03 129.66c0,0 -103.65,22.66 -165.51,-5.89 0,0 48.39,47.96 165.92,37.62l0 -27.23 -0.41 -4.5z"></path> <path class="fil1" d="M22.21 411.58l17.31 -98.17c0.2,-1.13 -0.2,-1.61 -1.33,-1.61l-7.57 0c-1.13,0 -1.7,0.48 -1.9,1.61l-17.31 98.17c-0.2,1.13 0.2,1.61 1.33,1.61l7.58 0c1.13,0 1.7,-0.49 1.9,-1.61zm96.24 0l17.31 -98.17c0.2,-1.13 -0.19,-1.61 -1.33,-1.61l-7.73 0c-1.13,0 -1.7,0.48 -1.9,1.61l-12.99 79.15 -0.32 0 -29.27 -79.96 -1.31 -0.81 -6.93 0c-1.13,0 -1.7,0.48 -1.9,1.61l-17.31 98.17c-0.2,1.13 0.2,1.61 1.33,1.61l7.57 0c1.13,0 1.7,-0.49 1.9,-1.61l13.07 -78.67 0.32 0 29.19 79.47 1.31 0.81 7.09 0c1.13,0 1.7,-0.49 1.9,-1.61zm72.86 -92.21l2.58 0c7.42,0 10.06,4.19 13.75,8.87 0.24,0.48 0.53,0.64 1.02,0.64 0.16,0 0.48,0 0.83,-0.16l7.37 -3.38c0.7,-0.32 1.24,-0.64 1.32,-1.13 0.91,-5.16 -7.49,-14.19 -22.65,-14.19l-2.58 0c-17.08,0 -29.92,10.64 -32.7,26.44 -2.9,16.44 5.59,22.24 20.76,30.31 12.54,6.61 20.02,10.8 18.12,21.6 -1.73,9.83 -10.78,17.25 -20.45,17.25l-6.93 0c-7.41,0 -9.87,-4.35 -13.56,-9.03 -0.4,-0.48 -0.5,-0.8 -1.15,-0.8 -0.16,0 -0.49,0 -0.84,0.16l-7.39 3.55c-0.7,0.32 -1.08,0.64 -1.2,1.29 -0.88,5 7.2,14.03 22.51,14.03l6.93 0c17.25,0 30.09,-10.64 32.88,-26.44 1.76,-10 -0.56,-17.9 -7.11,-23.7 -5.04,-4.35 -11.91,-7.41 -19.29,-11.28 -9.46,-4.84 -13.52,-10.15 -12.25,-17.41 1.65,-9.35 10.5,-16.6 20.01,-16.6zm94.03 -7.58l-31.27 0c-1.13,0 -1.7,0.48 -1.9,1.61l-17.31 98.17c-0.2,1.13 0.2,1.61 1.33,1.61l7.58 0c1.13,0 1.7,-0.49 1.9,-1.61l7.7 -43.69c0.2,-1.13 0.77,-1.61 1.9,-1.61l20.48 0c16.92,0 30.17,-11.12 33.04,-27.4 2.78,-15.8 -6.35,-27.08 -23.43,-27.08zm12.49 27.89c-1.74,9.83 -10.65,17.41 -20.48,17.41l-20.47 0c-1.13,0 -1.53,-0.48 -1.33,-1.61l5.8 -32.88c0.2,-1.13 0.77,-1.61 1.9,-1.61l20.47 0c9.67,0 16.07,7.58 14.4,17.09l-0.28 1.61zm35.36 71.9l17.31 -98.17c0.2,-1.13 -0.2,-1.61 -1.33,-1.61l-7.58 0c-1.12,0 -1.7,0.48 -1.9,1.61l-17.31 98.17c-0.2,1.13 0.2,1.61 1.33,1.61l7.57 0c1.13,0 1.7,-0.49 1.9,-1.61zm93.74 -0.48l-7.9 -46.59c0.03,-0.16 -0.1,-0.32 -0.07,-0.48 0.28,-1.61 3.4,-1.94 7.46,-4.84 7.23,-5.33 11.8,-12.09 12.8,-17.74l0.31 -1.77c2.99,-16.93 -6.04,-27.89 -23.29,-27.89l-31.27 0c-1.13,0 -1.7,0.48 -1.9,1.61l-17.31 98.17c-0.2,1.13 0.2,1.61 1.33,1.61l7.58 0c1.12,0 1.69,-0.49 1.89,-1.61l7.7 -43.69c0.2,-1.13 0.77,-1.61 1.9,-1.61l20.32 0c0.75,0.32 1.01,0.64 1.11,0.97l7.58 44.81c0.07,0.49 0.5,0.81 1.25,1.13l8.71 0c0.97,0 1.7,-0.49 1.84,-1.29 0.06,-0.32 0.08,-0.48 -0.02,-0.8zm1.79 -71.41c-1.74,9.83 -10.65,17.41 -20.48,17.41l-20.48 0c-1.12,0 -1.53,-0.48 -1.33,-1.61l5.8 -32.88c0.2,-1.13 0.77,-1.61 1.9,-1.61l20.47 0c9.67,0 16.07,7.58 14.4,17.09l-0.28 1.61zm86.62 71.9l1.05 -5.96c0.17,-0.97 -0.2,-1.61 -1.33,-1.61l-42.07 0c-1.13,0 -1.53,-0.49 -1.33,-1.61l6.08 -34.5c0.2,-1.13 0.77,-1.61 1.9,-1.61l34.5 0c1.13,0 1.7,-0.48 1.9,-1.61l1.05 -5.96c0.2,-1.12 -0.2,-1.61 -1.33,-1.61l-34.5 0c-1.13,0 -1.53,-0.48 -1.33,-1.61l5.8 -32.88c0.2,-1.13 0.77,-1.61 1.9,-1.61l42.08 0c1.12,0 1.7,-0.49 1.9,-1.61l1.05 -5.96c0.2,-1.13 -0.2,-1.61 -1.33,-1.61l-52.87 0c-1.13,0 -1.7,0.48 -1.9,1.61l-17.31 98.17c-0.2,1.13 0.2,1.61 1.33,1.61l52.88 0c1.12,0 1.7,-0.49 1.9,-1.61zm98.19 -26.6l7.99 -45.3c2.99,-16.93 -6.05,-27.89 -23.3,-27.89l-31.27 0c-1.13,0 -1.7,0.48 -1.9,1.61l-17.31 98.17c-0.2,1.13 0.2,1.61 1.33,1.61l31.27 0c17.25,0 30.15,-10.96 33.19,-28.21zm-11.11 1.77c-1.71,9.67 -10.62,17.25 -20.45,17.25l-20.47 0c-1.13,0 -1.53,-0.49 -1.33,-1.61l14.07 -79.79c0.2,-1.13 0.77,-1.61 1.9,-1.61l20.47 0c9.67,0 16.08,7.58 14.4,17.09l-8.58 48.68zm119.07 -67.38l2.58 0c7.42,0 10.06,4.19 13.75,8.87 0.24,0.48 0.53,0.64 1.01,0.64 0.16,0 0.49,0 0.84,-0.16l7.36 -3.38c0.7,-0.32 1.24,-0.64 1.33,-1.13 0.91,-5.16 -7.49,-14.19 -22.65,-14.19l-2.58 0c-17.09,0 -29.93,10.64 -32.71,26.44 -2.9,16.44 5.59,22.24 20.77,30.31 12.54,6.61 20.02,10.8 18.11,21.6 -1.73,9.83 -10.77,17.25 -20.45,17.25l-6.93 0c-7.42,0 -9.88,-4.35 -13.56,-9.03 -0.4,-0.48 -0.5,-0.8 -1.15,-0.8 -0.16,0 -0.48,0 -0.83,0.16l-7.4 3.55c-0.7,0.32 -1.08,0.64 -1.2,1.29 -0.88,5 7.2,14.03 22.52,14.03l6.93 0c17.25,0 30.08,-10.64 32.87,-26.44 1.76,-10 -0.55,-17.9 -7.1,-23.7 -5.04,-4.35 -11.91,-7.41 -19.29,-11.28 -9.46,-4.84 -13.52,-10.15 -12.24,-17.41 1.65,-9.35 10.5,-16.6 20.01,-16.6zm106.31 69l13.22 -74.96c0.2,-1.13 -0.2,-1.61 -1.33,-1.61l-7.73 0c-1.13,0 -1.7,0.48 -1.9,1.61l-13.22 74.96c-1.68,9.51 -10.94,17.25 -20.29,17.25l-4.99 0c-9.51,0 -15.76,-7.57 -14.05,-17.25l13.22 -74.96c0.2,-1.13 -0.2,-1.61 -1.33,-1.61l-7.74 0c-1.13,0 -1.7,0.48 -1.9,1.61l-13.22 74.96c-2.78,15.79 6.3,26.44 23.39,26.44l5 0c17.09,0 30.08,-10.64 32.87,-26.44zm66.95 -69l2.58 0c7.42,0 10.06,4.19 13.75,8.87 0.24,0.48 0.53,0.64 1.01,0.64 0.16,0 0.49,0 0.84,-0.16l7.37 -3.38c0.7,-0.32 1.24,-0.64 1.32,-1.13 0.91,-5.16 -7.5,-14.19 -22.65,-14.19l-2.58 0c-17.09,0 -29.93,10.64 -32.71,26.44 -2.9,16.44 5.59,22.24 20.77,30.31 12.54,6.61 20.02,10.8 18.11,21.6 -1.73,9.83 -10.77,17.25 -20.45,17.25l-6.93 0c-7.41,0 -9.87,-4.35 -13.56,-9.03 -0.4,-0.48 -0.5,-0.8 -1.14,-0.8 -0.16,0 -0.49,0 -0.84,0.16l-7.4 3.55c-0.7,0.32 -1.08,0.64 -1.2,1.29 -0.88,5 7.2,14.03 22.52,14.03l6.93 0c17.25,0 30.08,-10.64 32.87,-26.44 1.76,-10 -0.55,-17.9 -7.1,-23.7 -5.04,-4.35 -11.91,-7.41 -19.29,-11.28 -9.46,-4.84 -13.52,-10.15 -12.25,-17.41 1.65,-9.35 10.5,-16.6 20.01,-16.6zm105.3 0l1.05 -5.96c0.2,-1.13 -0.2,-1.61 -1.33,-1.61l-53.03 0c-1.13,0 -1.7,0.48 -1.9,1.61l-1.05 5.96c-0.2,1.13 0.2,1.61 1.33,1.61l19.51 0c1.13,0 1.53,0.48 1.33,1.61l-15.69 88.98c-0.2,1.13 0.19,1.61 1.33,1.61l7.58 0c1.12,0 1.7,-0.49 1.89,-1.61l15.69 -88.98c0.2,-1.13 0.76,-1.61 1.89,-1.61l19.5 0c1.13,0 1.7,-0.49 1.9,-1.61zm61.52 91.72l-12.52 -98.17c-0.18,-0.8 -0.61,-1.13 -1.41,-1.13l-6.12 0c-0.97,0 -1.35,0.32 -1.81,1.13l-47.13 98.17c-0.06,0.32 -0.25,0.48 -0.28,0.65 -0.17,0.96 0.39,1.45 1.51,1.45l8.23 0c0.8,0 1.5,-0.32 1.81,-1.13l10.21 -22.24c0.3,-0.8 0.82,-0.97 1.78,-0.97l30.3 0c0.97,0 1.42,0.16 1.44,0.97l2.37 22.24c0.02,0.81 0.45,1.13 1.41,1.13l8.22 0c1.12,0 1.86,-0.49 2.03,-1.45 0.03,-0.16 -0.1,-0.32 -0.04,-0.65zm-15.53 -33.53c-0.03,0.16 0.08,0.48 0.05,0.64 -0.17,0.97 -0.9,1.45 -2.03,1.45l-23.21 0c-1.13,0 -1.69,-0.48 -1.52,-1.45 0.03,-0.16 0.22,-0.32 0.27,-0.64l18.75 -41.43c0.77,-1.61 1.79,-3.7 2.89,-6.28l0.64 0c0.34,3.55 0.62,5.64 0.66,6.28l3.49 41.43zm52.36 34.01l17.31 -98.17c0.2,-1.13 -0.2,-1.61 -1.33,-1.61l-7.58 0c-1.13,0 -1.69,0.48 -1.89,1.61l-17.31 98.17c-0.2,1.13 0.2,1.61 1.32,1.61l7.58 0c1.13,0 1.7,-0.49 1.9,-1.61zm96.24 0l17.31 -98.17c0.2,-1.13 -0.2,-1.61 -1.33,-1.61l-7.74 0c-1.12,0 -1.7,0.48 -1.9,1.61l-12.99 79.15 -0.32 0 -29.27 -79.96 -1.31 -0.81 -6.93 0c-1.13,0 -1.7,0.48 -1.9,1.61l-17.31 98.17c-0.2,1.13 0.2,1.61 1.33,1.61l7.57 0c1.13,0 1.7,-0.49 1.9,-1.61l13.06 -78.67 0.32 0 29.19 79.47 1.31 0.81 7.09 0c1.13,0 1.7,-0.49 1.9,-1.61zm94.87 -0.48l-12.51 -98.17c-0.18,-0.8 -0.61,-1.13 -1.41,-1.13l-6.12 0c-0.97,0 -1.35,0.32 -1.81,1.13l-47.14 98.17c-0.06,0.32 -0.25,0.48 -0.27,0.65 -0.17,0.96 0.39,1.45 1.51,1.45l8.22 0c0.81,0 1.51,-0.32 1.81,-1.13l10.21 -22.24c0.3,-0.8 0.82,-0.97 1.78,-0.97l30.3 0c0.97,0 1.43,0.16 1.44,0.97l2.36 22.24c0.02,0.81 0.44,1.13 1.41,1.13l8.23 0c1.12,0 1.86,-0.49 2.03,-1.45 0.03,-0.16 -0.11,-0.32 -0.05,-0.65zm-15.52 -33.53c-0.03,0.16 0.07,0.48 0.04,0.64 -0.17,0.97 -0.9,1.45 -2.03,1.45l-23.21 0c-1.13,0 -1.69,-0.48 -1.52,-1.45 0.03,-0.16 0.22,-0.32 0.28,-0.64l18.75 -41.43c0.77,-1.61 1.78,-3.7 2.88,-6.28l0.64 0c0.34,3.55 0.62,5.64 0.67,6.28l3.49 41.43zm107.28 7.74l0.43 -2.42c1.73,-9.83 -2.47,-14.35 -8.75,-19.82 -0.4,-0.49 -0.85,-0.64 -0.71,-1.45 0.23,-1.29 4.94,-2.42 9.09,-6.77 4.53,-4.67 7,-9.51 7.68,-13.38l0.31 -1.77c2.99,-16.93 -6.04,-27.89 -23.29,-27.89l-31.27 0c-1.13,0 -1.7,0.48 -1.9,1.61l-17.31 98.17c-0.2,1.13 0.2,1.61 1.33,1.61l31.28 0c17.25,0 30.11,-10.8 33.12,-27.89zm-2.75 -45.62c-1.74,9.83 -10.65,17.41 -20.48,17.41l-20.47 0c-1.13,0 -1.53,-0.48 -1.33,-1.61l5.8 -32.88c0.2,-1.13 0.77,-1.61 1.9,-1.61l20.48 0c9.67,0 16.07,7.58 14.39,17.09l-0.28 1.61zm-8.3 47.07c-1.71,9.67 -10.62,17.25 -20.45,17.25l-20.47 0c-1.13,0 -1.53,-0.49 -1.33,-1.61l6.08 -34.5c0.2,-1.13 0.77,-1.61 1.9,-1.61l20.48 0c9.67,0 16.07,7.58 14.39,17.09l-0.6 3.38zm46.56 24.82l17.31 -98.17c0.2,-1.13 -0.2,-1.61 -1.33,-1.61l-7.58 0c-1.13,0 -1.7,0.48 -1.9,1.61l-17.31 98.17c-0.2,1.13 0.2,1.61 1.33,1.61l7.57 0c1.13,0 1.7,-0.49 1.9,-1.61zm88.66 0l1.05 -5.96c0.17,-0.97 -0.2,-1.61 -1.33,-1.61l-42.08 0c-1.13,0 -1.53,-0.49 -1.33,-1.61l15.69 -88.98c0.2,-1.13 -0.19,-1.61 -1.33,-1.61l-7.57 0c-1.13,0 -1.7,0.48 -1.9,1.61l-17.31 98.17c-0.2,1.13 0.2,1.61 1.33,1.61l52.87 0c1.13,0 1.7,-0.49 1.9,-1.61zm36.41 0l17.31 -98.17c0.2,-1.13 -0.2,-1.61 -1.33,-1.61l-7.58 0c-1.13,0 -1.69,0.48 -1.89,1.61l-17.31 98.17c-0.2,1.13 0.2,1.61 1.32,1.61l7.58 0c1.13,0 1.7,-0.49 1.9,-1.61zm98.95 -92.21l1.05 -5.96c0.2,-1.13 -0.2,-1.61 -1.33,-1.61l-53.03 0c-1.13,0 -1.7,0.48 -1.9,1.61l-1.05 5.96c-0.2,1.13 0.2,1.61 1.33,1.61l19.5 0c1.13,0 1.53,0.48 1.33,1.61l-15.69 88.98c-0.2,1.13 0.2,1.61 1.33,1.61l7.58 0c1.13,0 1.7,-0.49 1.9,-1.61l15.69 -88.98c0.2,-1.13 0.77,-1.61 1.9,-1.61l19.51 0c1.12,0 1.7,-0.49 1.89,-1.61zm89.04 -5.16c0.24,-0.48 0.46,-0.81 0.52,-1.13 0.14,-0.81 -0.42,-1.29 -1.55,-1.29l-9.19 0 -1.62 0.97 -26.67 40.62c-0.46,0.8 -1.17,1.13 -1.65,1.13 -0.49,0 -1.08,-0.32 -1.26,-1.13l-12.66 -40.62 -1.28 -0.97 -9.19 0c-1.29,0 -1.86,0.48 -2,1.29 -0.06,0.32 -0.11,0.64 0.12,1.13l18.38 52.06 -7.99 45.3c-0.2,1.13 0.19,1.61 1.33,1.61l7.9 0c1.13,0 1.7,-0.49 1.9,-1.61l7.99 -45.3 36.91 -52.06z"></path> </g> </svg>